<?xml version="1.0" standalone="no"?><!DOCTYPE svg PUBLIC "-//W3C//DTD SVG 1.1//EN" "http://www.w3.org/Graphics/SVG/1.1/DTD/svg11.dtd"><svg t="1681887989483" class="icon" viewBox="0 0 1024 1024" version="1.1" xmlns="http://www.w3.org/2000/svg" p-id="3318" xmlns:xlink="http://www.w3.org/1999/xlink" width="200" height="200"><path d="M526.336 68.608q91.136 0 171.008 32.768t139.264 89.6 93.696 133.632 34.304 163.84q0 88.064-35.328 164.864t-96.768 134.144q-19.456 21.504-51.2 21.504-22.528 0-41.984-13.312-43.008-27.648-61.952-57.856t-27.648-62.464-12.288-65.536-14.848-66.56-36.352-67.072-76.288-67.584q-25.6-16.384-48.128-24.576t-45.056-14.848-44.032-14.336-45.056-23.552-48.64-41.984-52.736-69.12q25.6-36.864 60.928-65.024t75.264-47.616 81.92-29.184 81.92-9.728zM570.368 545.792q14.336 31.744 19.968 61.44t8.704 57.344 8.704 52.736 20.48 48.128 42.496 44.032 76.8 39.424q3.072 3.072 5.12 11.776t5.12 19.968 9.728 26.112 19.968 30.208q-92.16 22.528-171.008 25.6t-158.72-20.48q9.216-22.528 13.312-40.96t5.12-34.304 0.512-30.208-1.536-29.696q-2.048-29.696-20.992-36.864t-44.032-3.584-50.176 12.288-40.448 10.752q-17.408 3.072-36.352 4.608t-35.328-1.024-26.112-9.728-6.656-22.528q2.048-12.288 4.608-28.672t2.56-33.792-5.632-33.28-19.968-27.136q-6.144-4.096-19.968-10.752t-26.112-14.848-18.432-16.384 3.072-16.384q20.48-15.36 41.984-34.816t32.768-41.984q5.12-10.24 6.144-21.504t-0.512-20.992-3.584-17.408-2.048-12.8-4.096-13.312-8.192-22.528-6.144-35.84 2.048-54.272q-26.624 7.168-37.888 30.72t-7.168 58.368q-16.384-24.576-17.408-45.568t6.656-37.888 22.528-30.208 31.232-22.528q26.624 57.344 57.856 86.016t65.536 43.52 69.12 21.504 68.096 19.968 63.488 39.424 54.784 78.336z" p-id="3319"></path></svg>